<svg width="30" height="34" viewBox="0 0 30 34" fill="none" xmlns="http://www.w3.org/2000/svg">
<path d="M15 34C16.1366 34 17.2267 33.5523 18.0305 32.7553C18.8342 31.9583 19.2857 30.8773 19.2857 29.7502H10.7143C10.7143 30.8773 11.1658 31.9583 11.9695 32.7553C12.7733 33.5523 13.8634 34 15 34ZM17.1321 2.33711C17.1621 2.04165 17.1292 1.74326 17.0356 1.46117C16.9421 1.17909 16.79 0.919575 16.5891 0.699369C16.3882 0.479164 16.143 0.303156 15.8693 0.182696C15.5956 0.0622367 15.2995 0 15 0C14.7005 0 14.4044 0.0622367 14.1307 0.182696C13.857 0.303156 13.6118 0.479164 13.4109 0.699369C13.21 0.919575 13.0579 1.17909 12.9644 1.46117C12.8708 1.74326 12.8379 2.04165 12.8679 2.33711C10.4455 2.82488 8.26764 4.1282 6.70353 6.02619C5.13942 7.92417 4.28522 10.3001 4.28571 12.7512C4.28571 15.0843 3.21429 25.5005 0 27.6253H30C26.7857 25.5005 25.7143 15.0843 25.7143 12.7512C25.7143 7.60894 22.0286 3.31668 17.1321 2.33711Z" fill="white"/>
</svg>
