<svg width="47" height="37" viewBox="0 0 47 37" fill="none" xmlns="http://www.w3.org/2000/svg">
<path d="M14.7639 37C32.5005 37 42.2031 22.7614 42.2031 10.4354C42.207 10.0351 42.2011 9.63474 42.1854 9.2344C44.0738 7.90886 45.704 6.26873 47 4.39051C45.2349 5.14263 43.3653 5.63934 41.4511 5.86474C43.4679 4.69704 44.9784 2.85939 45.7016 0.693551C43.8077 1.78278 41.7336 2.54633 39.5711 2.95043C38.1175 1.45065 36.1941 0.457099 34.0987 0.123661C32.0034 -0.209778 29.853 0.135511 27.9807 1.10604C26.1084 2.07657 24.6186 3.61818 23.7422 5.49208C22.8658 7.36598 22.6516 9.46758 23.1328 11.4714C19.2984 11.286 15.5471 10.3213 12.1226 8.64006C8.69797 6.95879 5.67664 4.59849 3.25475 1.71242C2.02564 3.77048 1.65073 6.20451 2.20608 8.52057C2.76144 10.8366 4.20546 12.8613 6.24512 14.1836C4.71589 14.1357 3.22007 13.7378 1.88 13.0224V13.1505C1.88374 15.306 2.65497 17.3943 4.06351 19.0628C5.47205 20.7313 7.43164 21.8778 9.6115 22.3089C8.78392 22.5299 7.92899 22.6401 7.07056 22.6362C6.4652 22.6423 5.8608 22.588 5.26694 22.474C5.88203 24.3304 7.08166 25.9537 8.69746 27.1159C10.3133 28.2782 12.2641 28.921 14.2763 28.9544C10.8573 31.5527 6.63653 32.9629 2.29125 32.9587C1.52544 32.9643 0.760067 32.9215 0 32.8306C4.41043 35.5556 9.53297 37.0022 14.7639 37Z" fill="white"/>
</svg>
