<svg width="26" height="34" viewBox="0 0 26 34" fill="none" xmlns="http://www.w3.org/2000/svg">
<path d="M0 29.75C0 32.0941 1.94323 34 4.33333 34H15.1667V25.5C15.1667 24.3246 16.1349 23.375 17.3333 23.375H26V4.25C26 1.90586 24.0568 0 21.6667 0H4.33333C1.94323 0 0 1.90586 0 4.25V29.75ZM11.5984 5.00039L5.09844 11.3754C4.67865 11.7871 3.98802 11.7871 3.56823 11.3754C3.14844 10.9637 3.14844 10.2863 3.56823 9.87461L10.0682 3.49961C10.488 3.08789 11.1786 3.08789 11.5984 3.49961C12.0182 3.91133 12.0182 4.58867 11.5984 5.00039ZM18.0984 7.12539L7.2651 17.7504C6.84531 18.1621 6.15469 18.1621 5.7349 17.7504C5.3151 17.3387 5.3151 16.6613 5.7349 16.2496L16.5682 5.62461C16.988 5.21289 17.6786 5.21289 18.0984 5.62461C18.5182 6.03633 18.5182 6.71367 18.0984 7.12539ZM26 25.5H17.3333V34L26 25.5Z" fill="black"/>
</svg>
