<svg width="28" height="27" viewBox="0 0 28 27" fill="none" xmlns="http://www.w3.org/2000/svg">
<path d="M28 3.53105C28 2.59456 27.6313 1.69642 26.9749 1.03422C26.3185 0.372021 25.4283 0 24.5 0L3.5 0C2.57174 0 1.6815 0.372021 1.02513 1.03422C0.368749 1.69642 0 2.59456 0 3.53105L0 17.6553C0 18.5918 0.368749 19.4899 1.02513 20.1521C1.6815 20.8143 2.57174 21.1863 3.5 21.1863H20.2755C20.7396 21.1864 21.1846 21.3725 21.5128 21.7036L26.5055 26.7407C26.6278 26.8643 26.7837 26.9486 26.9534 26.9829C27.1232 27.0171 27.2992 26.9998 27.4593 26.9331C27.6193 26.8663 27.756 26.7532 27.8523 26.608C27.9486 26.4628 28 26.2921 28 26.1174V3.53105ZM6.125 5.29658H21.875C22.1071 5.29658 22.3296 5.38958 22.4937 5.55513C22.6578 5.72068 22.75 5.94522 22.75 6.17934C22.75 6.41346 22.6578 6.638 22.4937 6.80355C22.3296 6.9691 22.1071 7.0621 21.875 7.0621H6.125C5.89294 7.0621 5.67038 6.9691 5.50628 6.80355C5.34219 6.638 5.25 6.41346 5.25 6.17934C5.25 5.94522 5.34219 5.72068 5.50628 5.55513C5.67038 5.38958 5.89294 5.29658 6.125 5.29658ZM6.125 9.71039H21.875C22.1071 9.71039 22.3296 9.8034 22.4937 9.96895C22.6578 10.1345 22.75 10.359 22.75 10.5932C22.75 10.8273 22.6578 11.0518 22.4937 11.2174C22.3296 11.3829 22.1071 11.4759 21.875 11.4759H6.125C5.89294 11.4759 5.67038 11.3829 5.50628 11.2174C5.34219 11.0518 5.25 10.8273 5.25 10.5932C5.25 10.359 5.34219 10.1345 5.50628 9.96895C5.67038 9.8034 5.89294 9.71039 6.125 9.71039ZM6.125 14.1242H14.875C15.1071 14.1242 15.3296 14.2172 15.4937 14.3828C15.6578 14.5483 15.75 14.7728 15.75 15.007C15.75 15.2411 15.6578 15.4656 15.4937 15.6312C15.3296 15.7967 15.1071 15.8897 14.875 15.8897H6.125C5.89294 15.8897 5.67038 15.7967 5.50628 15.6312C5.34219 15.4656 5.25 15.2411 5.25 15.007C5.25 14.7728 5.34219 14.5483 5.50628 14.3828C5.67038 14.2172 5.89294 14.1242 6.125 14.1242Z" fill="white"/>
</svg>
