<svg width="38" height="36" viewBox="0 0 38 36" fill="none" xmlns="http://www.w3.org/2000/svg">
<path d="M19 0C13.8439 0 13.1955 0.0225 11.1696 0.108C9.14375 0.198 7.76388 0.4995 6.555 0.945C5.28638 1.39573 4.13759 2.10465 3.18963 3.02175C2.22157 3.91982 1.47327 5.00815 0.9975 6.21C0.52725 7.353 0.206625 8.6625 0.114 10.575C0.02375 12.4987 0 13.1108 0 18.0023C0 22.8893 0.02375 23.5013 0.114 25.4205C0.209 27.3375 0.52725 28.6447 0.9975 29.79C1.48438 30.9735 2.13275 31.977 3.18963 32.9782C4.24413 33.9795 5.30338 34.596 6.55263 35.055C7.76388 35.5005 9.14138 35.8042 11.1649 35.892C13.1931 35.9775 13.8391 36 19 36C24.1609 36 24.8045 35.9775 26.8328 35.892C28.8539 35.802 30.2385 35.5005 31.4474 35.055C32.7151 34.604 33.8631 33.8951 34.8104 32.9782C35.8672 31.977 36.5156 30.9735 37.0025 29.79C37.4704 28.6447 37.791 27.3375 37.886 25.4205C37.9762 23.5013 38 22.8892 38 18C38 13.1108 37.9762 12.4988 37.886 10.5773C37.791 8.6625 37.4704 7.353 37.0025 6.21C36.5267 5.00815 35.7784 3.91982 34.8104 3.02175C33.8624 2.10465 32.7136 1.39573 31.445 0.945C30.2337 0.4995 28.8515 0.19575 26.8304 0.108C24.8021 0.0225 24.1585 0 18.9953 0H19ZM17.2971 3.2445H19.0024C24.0754 3.2445 24.6763 3.26025 26.6784 3.348C28.5309 3.42675 29.5379 3.7215 30.2076 3.96675C31.0935 4.293 31.7276 4.6845 32.3926 5.3145C33.0576 5.9445 33.4685 6.543 33.8129 7.3845C34.0741 8.01675 34.3829 8.97075 34.466 10.7257C34.5586 12.6225 34.5776 13.1918 34.5776 17.9955C34.5776 22.7992 34.5586 23.3707 34.466 25.2675C34.3829 27.0225 34.0718 27.9743 33.8129 28.6087C33.5061 29.3893 33.0202 30.0955 32.3902 30.6765C31.7252 31.3065 31.0935 31.6958 30.2053 32.022C29.5403 32.2695 28.5332 32.562 26.6784 32.643C24.6763 32.7285 24.0754 32.7487 19.0024 32.7487C13.9294 32.7487 13.3261 32.7285 11.324 32.643C9.4715 32.562 8.46688 32.2695 7.79712 32.022C6.9726 31.7323 6.2263 31.2728 5.61212 30.6765C4.98102 30.0951 4.49428 29.388 4.18713 28.6065C3.92825 27.9742 3.61713 27.0203 3.534 25.2653C3.44375 23.3685 3.42475 22.7992 3.42475 17.991C3.42475 13.1827 3.44375 12.618 3.534 10.7212C3.6195 8.96625 3.92825 8.01225 4.1895 7.37775C4.53387 6.5385 4.94712 5.93775 5.61212 5.30775C6.27712 4.67775 6.90887 4.2885 7.79712 3.96225C8.46688 3.71475 9.4715 3.42225 11.324 3.34125C13.0767 3.26475 13.756 3.24225 17.2971 3.24V3.2445ZM29.1436 6.2325C28.8442 6.2325 28.5477 6.28837 28.2711 6.39692C27.9945 6.50547 27.7431 6.66457 27.5314 6.86515C27.3197 7.06572 27.1518 7.30384 27.0372 7.5659C26.9226 7.82797 26.8636 8.10884 26.8636 8.3925C26.8636 8.67616 26.9226 8.95703 27.0372 9.2191C27.1518 9.48116 27.3197 9.71928 27.5314 9.91985C27.7431 10.1204 27.9945 10.2795 28.2711 10.3881C28.5477 10.4966 28.8442 10.5525 29.1436 10.5525C29.7483 10.5525 30.3282 10.3249 30.7558 9.91985C31.1834 9.51477 31.4236 8.96537 31.4236 8.3925C31.4236 7.81963 31.1834 7.27023 30.7558 6.86515C30.3282 6.46007 29.7483 6.2325 29.1436 6.2325ZM19.0024 8.757C17.7082 8.73787 16.4229 8.96284 15.2213 9.41882C14.0198 9.87479 12.926 10.5527 12.0036 11.413C11.0812 12.2732 10.3487 13.2988 9.84875 14.4298C9.34876 15.5609 9.09126 16.7749 9.09126 18.0011C9.09126 19.2274 9.34876 20.4414 9.84875 21.5724C10.3487 22.7035 11.0812 23.729 12.0036 24.5893C12.926 25.4496 14.0198 26.1275 15.2213 26.5834C16.4229 27.0394 17.7082 27.2644 19.0024 27.2453C21.5639 27.2074 24.007 26.2168 25.8043 24.4873C27.6016 22.7578 28.609 20.4281 28.609 18.0011C28.609 15.5741 27.6016 13.2444 25.8043 11.5149C24.007 9.78545 21.5639 8.79486 19.0024 8.757ZM19.0024 11.9993C19.8342 11.9993 20.6578 12.1545 21.4263 12.456C22.1948 12.7576 22.8931 13.1996 23.4813 13.7568C24.0695 14.314 24.536 14.9756 24.8543 15.7036C25.1727 16.4317 25.3365 17.212 25.3365 18C25.3365 18.788 25.1727 19.5683 24.8543 20.2964C24.536 21.0244 24.0695 21.6859 23.4813 22.2432C22.8931 22.8004 22.1948 23.2424 21.4263 23.544C20.6578 23.8455 19.8342 24.0007 19.0024 24.0007C17.3225 24.0007 15.7114 23.3685 14.5235 22.2432C13.3356 21.1178 12.6683 19.5915 12.6683 18C12.6683 16.4085 13.3356 14.8822 14.5235 13.7568C15.7114 12.6315 17.3225 11.9993 19.0024 11.9993Z" fill="white"/>
</svg>
