<svg width="49" height="48" viewBox="0 0 49 48" fill="none" xmlns="http://www.w3.org/2000/svg">
<path d="M34.3 19.0932C34.3 21.6251 33.2675 24.0533 31.4296 25.8436C29.5917 27.6339 27.0991 28.6397 24.5 28.6397C21.9008 28.6397 19.4082 27.6339 17.5703 25.8436C15.7324 24.0533 14.7 21.6251 14.7 19.0932C14.7 16.5613 15.7324 14.1331 17.5703 12.3427C19.4082 10.5524 21.9008 9.54663 24.5 9.54663C27.0991 9.54663 29.5917 10.5524 31.4296 12.3427C33.2675 14.1331 34.3 16.5613 34.3 19.0932Z" fill="black"/>
<path fill-rule="evenodd" clip-rule="evenodd" d="M23.5004 47.7136C10.4333 47.2029 0 36.7208 0 23.8663C0 10.685 10.9687 0 24.5 0C38.0313 0 49 10.685 49 23.8663C49 37.0477 38.0313 47.7327 24.5 47.7327C24.3881 47.7334 24.2762 47.7334 24.1644 47.7327C23.9426 47.7327 23.7209 47.7255 23.5004 47.7136ZM8.77835 38.926C8.59517 38.4136 8.53282 37.8675 8.59592 37.3284C8.65903 36.7893 8.84598 36.2709 9.14288 35.8118C9.43979 35.3527 9.83903 34.9646 10.311 34.6763C10.7829 34.3881 11.3154 34.2071 11.869 34.1468C21.4191 33.1169 27.6397 33.21 37.1432 34.1683C37.6975 34.2245 38.2314 34.4032 38.7041 34.6908C39.1768 34.9784 39.5759 35.3673 39.871 35.8278C40.1661 36.2884 40.3494 36.8084 40.407 37.3484C40.4646 37.8884 40.3949 38.4341 40.2033 38.9439C44.2763 34.9295 46.5573 29.5107 46.55 23.8663C46.55 12.0036 36.6777 2.38663 24.5 2.38663C12.3223 2.38663 2.45 12.0036 2.45 23.8663C2.45 29.7327 4.86448 35.0501 8.77835 38.926Z" fill="black"/>
<path d="M34.3 19.0932C34.3 21.6251 33.2675 24.0533 31.4296 25.8436C29.5917 27.6339 27.0991 28.6397 24.5 28.6397C21.9008 28.6397 19.4082 27.6339 17.5703 25.8436C15.7324 24.0533 14.7 21.6251 14.7 19.0932C14.7 16.5613 15.7324 14.1331 17.5703 12.3427C19.4082 10.5524 21.9008 9.54663 24.5 9.54663C27.0991 9.54663 29.5917 10.5524 31.4296 12.3427C33.2675 14.1331 34.3 16.5613 34.3 19.0932Z" fill="black"/>
<path fill-rule="evenodd" clip-rule="evenodd" d="M23.5004 47.7136C10.4333 47.2029 0 36.7208 0 23.8663C0 10.685 10.9687 0 24.5 0C38.0313 0 49 10.685 49 23.8663C49 37.0477 38.0313 47.7327 24.5 47.7327C24.3881 47.7334 24.2762 47.7334 24.1644 47.7327C23.9426 47.7327 23.7209 47.7255 23.5004 47.7136ZM8.77835 38.926C8.59517 38.4136 8.53282 37.8675 8.59592 37.3284C8.65903 36.7893 8.84598 36.2709 9.14288 35.8118C9.43979 35.3527 9.83903 34.9646 10.311 34.6763C10.7829 34.3881 11.3154 34.2071 11.869 34.1468C21.4191 33.1169 27.6397 33.21 37.1432 34.1683C37.6975 34.2245 38.2314 34.4032 38.7041 34.6908C39.1768 34.9784 39.5759 35.3673 39.871 35.8278C40.1661 36.2884 40.3494 36.8084 40.407 37.3484C40.4646 37.8884 40.3949 38.4341 40.2033 38.9439C44.2763 34.9295 46.5573 29.5107 46.55 23.8663C46.55 12.0036 36.6777 2.38663 24.5 2.38663C12.3223 2.38663 2.45 12.0036 2.45 23.8663C2.45 29.7327 4.86448 35.0501 8.77835 38.926Z" fill="black"/>
</svg>
