<svg width="30" height="34" viewBox="0 0 30 34" fill="none" xmlns="http://www.w3.org/2000/svg">
<path d="M15 33.0975C16.1366 33.0975 17.2267 32.6735 18.0305 31.9186C18.8342 31.1637 19.2857 30.1399 19.2857 29.0723H10.7143C10.7143 30.1399 11.1658 31.1637 11.9695 31.9186C12.7733 32.6735 13.8634 33.0975 15 33.0975ZM17.1321 3.10789C17.1621 2.82804 17.1292 2.54542 17.0356 2.27824C16.9421 2.01107 16.79 1.76527 16.5891 1.5567C16.3882 1.34813 16.143 1.18142 15.8693 1.06733C15.5956 0.953235 15.2995 0.894287 15 0.894287C14.7005 0.894287 14.4044 0.953235 14.1307 1.06733C13.857 1.18142 13.6118 1.34813 13.4109 1.5567C13.21 1.76527 13.0579 2.01107 12.9644 2.27824C12.8708 2.54542 12.8379 2.82804 12.8679 3.10789C10.4455 3.56988 8.26764 4.80433 6.70353 6.60202C5.13942 8.3997 4.28522 10.65 4.28571 12.9716C4.28571 15.1814 3.21429 25.0472 0 27.0598H30C26.7857 25.0472 25.7143 15.1814 25.7143 12.9716C25.7143 8.10113 22.0286 4.03569 17.1321 3.10789Z" fill="white"/>
</svg>
