<svg width="32" height="32" viewBox="0 0 32 32" fill="none" xmlns="http://www.w3.org/2000/svg">
<path d="M14.005 -0.00415039L12.01 4.74398C11.611 4.86368 11.2519 5.06318 10.8928 5.26268L6.14464 3.26767L3.27182 6.14049L5.26683 10.8886C5.06733 11.2876 4.90773 11.6068 4.74813 12.0058L0 14.0008V17.9909L4.74813 19.9859C4.90773 20.3849 5.06733 20.7041 5.26683 21.1031L3.27182 25.8512L6.14464 28.724L10.8928 26.729C11.2519 26.8886 11.611 27.0881 12.01 27.2477L14.005 31.9958H17.995L19.99 27.2477C20.3491 27.0881 20.7481 26.9285 21.1072 26.729L25.8554 28.724L28.7282 25.8512L26.7332 21.1031C26.8928 20.744 27.0923 20.345 27.2519 19.9859L32 17.9909V14.0008L27.2519 12.0058C27.1322 11.6467 26.9327 11.2477 26.7332 10.8886L28.7282 6.14049L25.8554 3.26767L21.1072 5.26268C20.7481 5.10308 20.3491 4.90358 19.99 4.74398L17.995 -0.00415039L14.005 -0.00415039ZM16 9.97091C19.3117 9.97091 21.985 12.6442 21.985 15.9559C21.985 19.2677 19.3117 21.941 16 21.941C12.6883 21.941 10.015 19.2677 10.015 15.9559C10.015 12.6442 12.6883 9.97091 16 9.97091Z" fill="white"/>
</svg>
